<?xml version="1.0" standalone="no"?>
<!DOCTYPE svg PUBLIC "-//W3C//DTD SVG 20010904//EN"
 "http://www.w3.org/TR/2001/REC-SVG-20010904/DTD/svg10.dtd">
<svg version="1.0" xmlns="http://www.w3.org/2000/svg"
 width="700.000000pt" height="700.000000pt" viewBox="0 0 700.000000 700.000000"
 preserveAspectRatio="xMidYMid meet">
<metadata>
Created by potrace 1.14, written by Peter Selinger 2001-2017
</metadata>
<g transform="translate(0.000000,700.000000) scale(0.100000,-0.100000)"
fill="#083344" stroke="none">
<path d="M3375 6989 c-88 -11 -221 -52 -305 -93 -63 -31 -2338 -1407 -2430
-1469 -66 -45 -186 -163 -236 -233 -61 -86 -129 -233 -156 -340 l-23 -89 0
-1265 0 -1265 23 -89 c24 -97 91 -246 143 -322 49 -71 166 -191 234 -239 85
-60 2366 -1442 2445 -1481 163 -80 357 -115 532 -94 117 13 282 64 367 112
149 85 2354 1426 2406 1463 75 53 194 178 242 252 55 87 109 209 134 308 l24
90 0 1265 0 1265 -23 90 c-29 109 -96 255 -156 339 -55 76 -172 190 -251 243
-54 36 -2276 1383 -2385 1446 -70 40 -246 94 -345 106 -101 12 -140 12 -240 0z
m505 -839 c454 -67 870 -241 1238 -517 227 -170 491 -458 649 -708 202 -319
335 -692 390 -1085 23 -171 23 -509 0 -680 -169 -1221 -1096 -2148 -2317
-2317 -171 -23 -509 -23 -680 0 -431 60 -814 206 -1165 445 -168 115 -238 173
-395 331 -419 421 -668 929 -756 1536 -27 180 -24 534 4 720 72 465 242 875
519 1243 101 135 348 387 473 483 108 84 278 196 384 254 309 168 691 282
1060 315 141 13 443 3 596 -20z"/>
<path d="M3214 5584 c-363 -49 -732 -208 -1028 -442 -91 -71 -257 -237 -328
-328 -129 -163 -251 -376 -325 -568 -47 -121 -100 -332 -118 -471 -19 -149
-19 -401 0 -550 90 -684 514 -1282 1132 -1598 140 -71 262 -119 404 -156 219
-58 282 -65 549 -65 266 0 330 7 546 64 502 133 934 449 1227 900 146 225 248
491 304 790 25 136 25 544 0 680 -86 460 -276 829 -592 1146 -208 209 -460
373 -739 481 -121 47 -332 100 -471 118 -143 18 -422 18 -561 -1z m171 -874
c393 -107 922 -453 1171 -764 72 -90 147 -232 169 -321 31 -123 15 -264 -45
-392 -131 -282 -511 -607 -975 -834 -305 -150 -539 -194 -707 -135 -250 88
-406 339 -474 761 -22 136 -31 621 -15 793 48 504 209 801 491 900 57 20 79
22 185 19 81 -3 146 -12 200 -27z"/>
<path d="M3159 4124 c-52 -117 -78 -279 -86 -545 -9 -298 23 -577 81 -704 29
-64 35 -65 128 -34 302 104 724 397 855 595 34 51 34 53 19 82 -49 95 -230
263 -421 390 -167 111 -401 225 -516 251 l-41 9 -19 -44z"/>
</g>
</svg>
