<!DOCTYPE svg PUBLIC "-//W3C//DTD SVG 1.1//EN" "http://www.w3.org/Graphics/SVG/1.1/DTD/svg11.dtd">
<!-- Uploaded to: SVG Repo, www.svgrepo.com, Transformed by: SVG Repo Mixer Tools -->
<svg width="256px" height="256px" viewBox="-2.64 -2.64 29.28 29.28" fill="none" xmlns="http://www.w3.org/2000/svg" transform="rotate(0)">
<g id="SVGRepo_bgCarrier" stroke-width="0" transform="translate(0,0), scale(1)">
<path transform="translate(-2.64, -2.64), scale(1.83)" fill="#083344" d="M9.166.33a2.25 2.25 0 00-2.332 0l-5.25 3.182A2.25 2.25 0 00.5 5.436v5.128a2.25 2.25 0 001.084 1.924l5.25 3.182a2.25 2.25 0 002.332 0l5.25-3.182a2.25 2.25 0 001.084-1.924V5.436a2.25 2.25 0 00-1.084-1.924L9.166.33z" strokewidth="0"/>
</g>
<g id="SVGRepo_tracerCarrier" stroke-linecap="round" stroke-linejoin="round" stroke="#CCCCCC" stroke-width="0.192"/>
<g id="SVGRepo_iconCarrier"> <path d="M10.28 8.03994C9.19003 8.42994 9 10.5199 9 12.0399C9 13.5599 9.19003 15.5999 10.28 16.0399C11.37 16.4799 16 13.7499 16 12.0399C16 10.3299 11.44 7.61994 10.28 8.03994Z" stroke="#dae7ec" stroke-width="2.4" stroke-linecap="round" stroke-linejoin="round"/> <path d="M12 22C17.5228 22 22 17.5228 22 12C22 6.47715 17.5228 2 12 2C6.47715 2 2 6.47715 2 12C2 17.5228 6.47715 22 12 22Z" stroke="#dae7ec" stroke-width="2.4" stroke-linecap="round" stroke-linejoin="round"/> </g>
</svg>